<svg viewBox="0 0 13 14" xmlns="http://www.w3.org/2000/svg">
<path d="M11.3457 2.82917L10.6199 2.5025L10.6199 7.77L11.9361 4.35167C12.1582 3.75667 11.8928 3.07417 11.3457 2.82917ZM0.783228 4.9875L3.46989 11.97C3.63781 12.4075 4.03323 12.6758 4.45031 12.6875C4.59114 12.6875 4.73739 12.6642 4.87823 12.6L8.87031 10.8208C9.27656 10.64 9.52573 10.22 9.53656 9.77083C9.54198 9.61333 9.51489 9.45583 9.45531 9.30417L6.76864 2.32167C6.60073 1.87833 6.19989 1.61 5.77739 1.60417C5.63656 1.60417 5.49573 1.63333 5.36031 1.69167L1.37364 3.47083C0.821145 3.71583 0.555728 4.39833 0.783228 4.9875ZM8.44781 9.1875C8.74573 9.1875 8.98948 9.45 8.98948 9.77083C8.98948 10.0917 8.74573 10.3542 8.44781 10.3542C8.14989 10.3542 7.90614 10.0917 7.90614 9.77083C7.90614 9.45 8.14989 9.1875 8.44781 9.1875ZM9.53114 2.77083C9.53114 2.12917 9.04364 1.60417 8.44781 1.60417H7.66239L9.53114 6.46917L9.53114 2.77083Z" fill="#78777D"/>
<path d="M7.67188 9.80357C7.67188 9.32015 8.03548 8.92857 8.48438 8.92857C8.93327 8.92857 9.29688 9.32015 9.29688 9.80357C9.29688 10.287 8.93327 10.6786 8.48438 10.6786C8.03548 10.6786 7.67188 10.287 7.67188 9.80357Z" fill="#78777D"/>
</svg>
