<svg width="26" height="17" viewBox="0 0 26 17" fill="none" xmlns="http://www.w3.org/2000/svg">
<g clip-path="url(#clip0)">
<path d="M-6.52539 0H32.5786V17.0453H-6.52539V0Z" fill="#012169"/>
<path d="M-6.52539 0V1.90428L28.2062 17.0453H32.5786V15.141L-2.15292 0H-6.52539ZM32.5786 0V1.90428L-2.15292 17.0453H-6.52539V15.141L28.2062 0H32.5786Z" fill="white"/>
<path d="M9.76922 0V17.0453H16.284V0H9.76922ZM-6.52539 5.68289V11.3624H32.5786V5.68289H-6.52539Z" fill="white"/>
<path d="M-6.52539 6.81813V10.2272H32.5786V6.81813H-6.52539ZM11.0714 0V17.0453H14.9818V0H11.0714ZM-6.52539 17.0453L6.50801 11.3624H9.42553L-3.61168 17.0453H-6.52539ZM-6.52539 0L6.50801 5.68289H3.5943L-6.52539 1.27174V0ZM16.6315 5.68289L29.6649 0H32.5786L19.5452 5.68289H16.6315ZM32.5786 17.0453L19.5452 11.3624H22.4589L32.5786 15.7736V17.0453Z" fill="#C8102E"/>
</g>
<defs>
<clipPath id="clip0">
<rect width="26" height="17" fill="white"/>
</clipPath>
</defs>
</svg>
